<svg width="544" height="207" xmlns="http://www.w3.org/2000/svg" xmlns:xlink="http://www.w3.org/1999/xlink" xml:space="preserve" overflow="hidden"><g transform="translate(-732 -401)"><g><g><g><g><path d="M13.9919 6.98784C13.9919 10.6562 11.0181 13.63 7.34978 13.63 3.68142 13.63 0.707643 10.6562 0.707643 6.98784 0.707643 3.31949 3.68142 0.345694 7.34978 0.345694 11.0181 0.345694 13.9919 3.31949 13.9919 6.98784Z" stroke="#309BC9" stroke-width="1.47734" stroke-linecap="butt" stroke-linejoin="miter" stroke-miterlimit="4" stroke-opacity="1" fill="#D9ECF3" fill-rule="nonzero" fill-opacity="1" transform="matrix(1.00738 0 0 1 744.068 455.942)"/><path d="M13.9919 75.278C13.9919 78.9464 11.0181 81.9203 7.34978 81.9203 3.68142 81.9203 0.707643 78.9464 0.707643 75.278 0.707643 71.6098 3.68142 68.6359 7.34978 68.6359 11.0181 68.6359 13.9919 71.6098 13.9919 75.278Z" stroke="#309BC9" stroke-width="1.47734" stroke-linecap="butt" stroke-linejoin="miter" stroke-miterlimit="4" stroke-opacity="1" fill="#D9ECF3" fill-rule="nonzero" fill-opacity="1" transform="matrix(1.00738 0 0 1 744.068 455.942)"/><path d="M13.9919 109.419C13.9919 113.088 11.0181 116.062 7.34978 116.062 3.68142 116.062 0.707643 113.088 0.707643 109.419 0.707643 105.751 3.68142 102.777 7.34978 102.777 11.0181 102.777 13.9919 105.751 13.9919 109.419Z" stroke="#309BC9" stroke-width="1.47734" stroke-linecap="butt" stroke-linejoin="miter" stroke-miterlimit="4" stroke-opacity="1" fill="#D9ECF3" fill-rule="nonzero" fill-opacity="1" transform="matrix(1.00738 0 0 1 744.068 455.942)"/><path d="M13.9919 41.1292C13.9919 44.7976 11.0181 47.7715 7.34978 47.7715 3.68142 47.7715 0.707643 44.7976 0.707643 41.1292 0.707643 37.461 3.68142 34.4871 7.34978 34.4871 11.0181 34.4871 13.9919 37.461 13.9919 41.1292Z" stroke="#309BC9" stroke-width="1.47734" stroke-linecap="butt" stroke-linejoin="miter" stroke-miterlimit="4" stroke-opacity="1" fill="#D9ECF3" fill-rule="nonzero" fill-opacity="1" transform="matrix(1.00738 0 0 1 744.068 455.942)"/><path d="M67.0361 27.4713C67.0361 31.1395 64.0622 34.1134 60.3938 34.1134 56.7256 34.1134 53.7517 31.1395 53.7517 27.4713 53.7517 23.8029 56.7256 20.8291 60.3938 20.8291 64.0622 20.8291 67.0361 23.8029 67.0361 27.4713Z" stroke="#309BC9" stroke-width="1.47734" stroke-linecap="butt" stroke-linejoin="miter" stroke-miterlimit="4" stroke-opacity="1" fill="#D9ECF3" fill-rule="nonzero" fill-opacity="1" transform="matrix(1.00738 0 0 1 744.068 455.942)"/><path d="M67.0361 93.4863C67.0361 97.1547 64.0622 100.129 60.3938 100.129 56.7256 100.129 53.7517 97.1547 53.7517 93.4863 53.7517 89.8181 56.7256 86.8442 60.3938 86.8442 64.0622 86.8442 67.0361 89.8181 67.0361 93.4863Z" stroke="#309BC9" stroke-width="1.47734" stroke-linecap="butt" stroke-linejoin="miter" stroke-miterlimit="4" stroke-opacity="1" fill="#D9ECF3" fill-rule="nonzero" fill-opacity="1" transform="matrix(1.00738 0 0 1 744.068 455.942)"/><path d="M67.0361 59.3375C67.0361 63.0059 64.0622 65.9798 60.3938 65.9798 56.7256 65.9798 53.7517 63.0059 53.7517 59.3375 53.7517 55.6693 56.7256 52.6954 60.3938 52.6954 64.0622 52.6954 67.0361 55.6693 67.0361 59.3375Z" stroke="#309BC9" stroke-width="1.47734" stroke-linecap="butt" stroke-linejoin="miter" stroke-miterlimit="4" stroke-opacity="1" fill="#D9ECF3" fill-rule="nonzero" fill-opacity="1" transform="matrix(1.00738 0 0 1 744.068 455.942)"/><path d="M67.0361 127.628C67.0361 131.296 64.0622 134.27 60.3938 134.27 56.7256 134.27 53.7517 131.296 53.7517 127.628 53.7517 123.959 56.7256 120.986 60.3938 120.986 64.0622 120.986 67.0361 123.959 67.0361 127.628Z" stroke="#309BC9" stroke-width="1.47734" stroke-linecap="butt" stroke-linejoin="miter" stroke-miterlimit="4" stroke-opacity="1" fill="#D9ECF3" fill-rule="nonzero" fill-opacity="1" transform="matrix(1.00738 0 0 1 744.068 455.942)"/><path d="M111.245 43.4045C111.245 47.0727 108.272 50.0466 104.603 50.0466 100.935 50.0466 97.9613 47.0727 97.9613 43.4045 97.9613 39.7361 100.935 36.7622 104.603 36.7622 108.272 36.7622 111.245 39.7361 111.245 43.4045Z" stroke="#309BC9" stroke-width="1.47734" stroke-linecap="butt" stroke-linejoin="miter" stroke-miterlimit="4" stroke-opacity="1" fill="#D9ECF3" fill-rule="nonzero" fill-opacity="1" transform="matrix(1.00738 0 0 1 744.068 455.942)"/><path d="M111.245 77.5533C111.245 81.2215 108.272 84.1954 104.603 84.1954 100.935 84.1954 97.9613 81.2215 97.9613 77.5533 97.9613 73.8849 100.935 70.911 104.603 70.911 108.272 70.911 111.245 73.8849 111.245 77.5533Z" stroke="#309BC9" stroke-width="1.47734" stroke-linecap="butt" stroke-linejoin="miter" stroke-miterlimit="4" stroke-opacity="1" fill="#D9ECF3" fill-rule="nonzero" fill-opacity="1" transform="matrix(1.00738 0 0 1 744.068 455.942)"/><path d="M111.245 111.695C111.245 115.363 108.272 118.337 104.603 118.337 100.935 118.337 97.9613 115.363 97.9613 111.695 97.9613 108.026 100.935 105.052 104.603 105.052 108.272 105.052 111.245 108.026 111.245 111.695Z" stroke="#309BC9" stroke-width="1.47734" stroke-linecap="butt" stroke-linejoin="miter" stroke-miterlimit="4" stroke-opacity="1" fill="#D9ECF3" fill-rule="nonzero" fill-opacity="1" transform="matrix(1.00738 0 0 1 744.068 455.942)"/><path d="M155.448 59.3375C155.448 63.0059 152.474 65.9798 148.806 65.9798 145.137 65.9798 142.163 63.0059 142.163 59.3375 142.163 55.6693 145.137 52.6954 148.806 52.6954 152.474 52.6954 155.448 55.6693 155.448 59.3375Z" stroke="#309BC9" stroke-width="1.47734" stroke-linecap="butt" stroke-linejoin="miter" stroke-miterlimit="4" stroke-opacity="0.4" fill="#D9ECF3" fill-rule="nonzero" fill-opacity="0.4" transform="matrix(1.00738 0 0 1 744.068 455.942)"/><path d="M155.448 93.4863C155.448 97.1547 152.474 100.129 148.806 100.129 145.137 100.129 142.163 97.1547 142.163 93.4863 142.163 89.8181 145.137 86.8442 148.806 86.8442 152.474 86.8442 155.448 89.8181 155.448 93.4863Z" stroke="#309BC9" stroke-width="1.47734" stroke-linecap="butt" stroke-linejoin="miter" stroke-miterlimit="4" stroke-opacity="1" fill="#D9ECF3" fill-rule="nonzero" fill-opacity="1" transform="matrix(1.00738 0 0 1 744.068 455.942)"/><path d="M13.9905 143.561 53.7532 95.0228" stroke="#309BC9" stroke-width="1.47734" stroke-linecap="butt" stroke-linejoin="miter" stroke-miterlimit="10" stroke-opacity="0.25" fill="none" fill-rule="nonzero" transform="matrix(1.00738 0 0 1 744.068 455.942)"/><path d="M13.9905 143.561 53.7532 127.628" stroke="#309BC9" stroke-width="1.47734" stroke-linecap="butt" stroke-linejoin="miter" stroke-miterlimit="10" stroke-opacity="0.25" fill="none" fill-rule="nonzero" transform="matrix(1.00738 0 0 1 744.068 455.942)"/><path d="M13.9905 143.561 53.5981 60.8444" stroke="#309BC9" stroke-width="1.47734" stroke-linecap="butt" stroke-linejoin="miter" stroke-miterlimit="10" stroke-opacity="0.25" fill="none" fill-rule="nonzero" transform="matrix(1.00738 0 0 1 744.068 455.942)"/><path d="M13.9905 143.561 53.7532 27.4713" stroke="#309BC9" stroke-width="1.47734" stroke-linecap="butt" stroke-linejoin="miter" stroke-miterlimit="10" stroke-opacity="0.25" fill="none" fill-rule="nonzero" transform="matrix(1.00738 0 0 1 744.068 455.942)"/><path d="M13.9905 109.419 53.7532 127.628" stroke="#309BC9" stroke-width="1.47734" stroke-linecap="butt" stroke-linejoin="miter" stroke-miterlimit="10" stroke-opacity="0.25" fill="none" fill-rule="nonzero" transform="matrix(1.00738 0 0 1 744.068 455.942)"/><path d="M14.02 109.072 53.5981 94.6165" stroke="#309BC9" stroke-width="1.47734" stroke-linecap="butt" stroke-linejoin="miter" stroke-miterlimit="10" stroke-opacity="1" fill="none" fill-rule="nonzero" transform="matrix(1.00738 0 0 1 744.068 455.942)"/><path d="M13.9905 75.278 53.7532 27.4713" stroke="#309BC9" stroke-width="1.47734" stroke-linecap="butt" stroke-linejoin="miter" stroke-miterlimit="10" stroke-opacity="0.25" fill="none" fill-rule="nonzero" transform="matrix(1.00738 0 0 1 744.068 455.942)"/><path d="M13.9905 75.278 53.5169 60.1132" stroke="#309BC9" stroke-width="1.47734" stroke-linecap="butt" stroke-linejoin="miter" stroke-miterlimit="10" stroke-opacity="0.25" fill="none" fill-rule="nonzero" transform="matrix(1.00738 0 0 1 744.068 455.942)"/><path d="M13.9905 75.278 53.7532 93.4863" stroke="#309BC9" stroke-width="1.47734" stroke-linecap="butt" stroke-linejoin="miter" stroke-miterlimit="10" stroke-opacity="0.25" fill="none" fill-rule="nonzero" transform="matrix(1.00738 0 0 1 744.068 455.942)"/><path d="M13.9905 75.278 53.8197 126.948" stroke="#309BC9" stroke-width="1.47734" stroke-linecap="butt" stroke-linejoin="miter" stroke-miterlimit="10" stroke-opacity="1" fill="none" fill-rule="nonzero" transform="matrix(1.00738 0 0 1 744.068 455.942)"/><path d="M13.9905 109.419 53.7532 27.4713" stroke="#309BC9" stroke-width="1.47734" stroke-linecap="butt" stroke-linejoin="miter" stroke-miterlimit="10" stroke-opacity="0.25" fill="none" fill-rule="nonzero" transform="matrix(1.00738 0 0 1 744.068 455.942)"/><path d="M13.9905 109.419 53.7532 59.3375" stroke="#309BC9" stroke-width="1.47734" stroke-linecap="butt" stroke-linejoin="miter" stroke-miterlimit="10" stroke-opacity="0.25" fill="none" fill-rule="nonzero" transform="matrix(1.00738 0 0 1 744.068 455.942)"/><path d="M13.9905 41.1292 53.7532 27.4713" stroke="#309BC9" stroke-width="1.47734" stroke-linecap="butt" stroke-linejoin="miter" stroke-miterlimit="10" stroke-opacity="1" fill="none" fill-rule="nonzero" transform="matrix(1.00738 0 0 1 744.068 455.942)"/><path d="M13.9905 41.1292 53.7532 59.3375" stroke="#309BC9" stroke-width="1.47734" stroke-linecap="butt" stroke-linejoin="miter" stroke-miterlimit="10" stroke-opacity="0.25" fill="none" fill-rule="nonzero" transform="matrix(1.00738 0 0 1 744.068 455.942)"/><path d="M13.9905 41.1292 53.7532 93.4863" stroke="#309BC9" stroke-width="1.47734" stroke-linecap="butt" stroke-linejoin="miter" stroke-miterlimit="10" stroke-opacity="0.25" fill="none" fill-rule="nonzero" transform="matrix(1.00738 0 0 1 744.068 455.942)"/><path d="M13.9905 41.1292 53.731 126.86" stroke="#309BC9" stroke-width="1.47734" stroke-linecap="butt" stroke-linejoin="miter" stroke-miterlimit="10" stroke-opacity="0.25" fill="none" fill-rule="nonzero" transform="matrix(1.00738 0 0 1 744.068 455.942)"/><path d="M13.9905 6.98784 53.7532 127.628" stroke="#309BC9" stroke-width="1.47734" stroke-linecap="butt" stroke-linejoin="miter" stroke-miterlimit="10" stroke-opacity="0.25" fill="none" fill-rule="nonzero" transform="matrix(1.00738 0 0 1 744.068 455.942)"/><path d="M13.9905 6.98784 53.7532 93.4863" stroke="#309BC9" stroke-width="1.47734" stroke-linecap="butt" stroke-linejoin="miter" stroke-miterlimit="10" stroke-opacity="0.25" fill="none" fill-rule="nonzero" transform="matrix(1.00738 0 0 1 744.068 455.942)"/><path d="M13.3404 7.1208 53.7532 59.3375" stroke="#309BC9" stroke-width="1.47734" stroke-linecap="butt" stroke-linejoin="miter" stroke-miterlimit="10" stroke-opacity="1" fill="none" fill-rule="nonzero" transform="matrix(1.00738 0 0 1 744.068 455.942)"/><path d="M13.9905 6.98784 53.7532 27.4713" stroke="#309BC9" stroke-width="1.47734" stroke-linecap="butt" stroke-linejoin="miter" stroke-miterlimit="10" stroke-opacity="1" fill="none" fill-rule="nonzero" transform="matrix(1.00738 0 0 1 744.068 455.942)"/><path d="M67.0419 27.4713 97.9552 43.4045" stroke="#309BC9" stroke-width="1.47734" stroke-linecap="butt" stroke-linejoin="miter" stroke-miterlimit="10" stroke-opacity="0.25" fill="none" fill-rule="nonzero" transform="matrix(1.00738 0 0 1 744.068 455.942)"/><path d="M67.0419 27.4713 97.9552 77.5533" stroke="#309BC9" stroke-width="1.47734" stroke-linecap="butt" stroke-linejoin="miter" stroke-miterlimit="10" stroke-opacity="1" fill="none" fill-rule="nonzero" transform="matrix(1.00738 0 0 1 744.068 455.942)"/><path d="M67.2782 28.0694 97.9552 111.695" stroke="#309BC9" stroke-width="1.47734" stroke-linecap="butt" stroke-linejoin="miter" stroke-miterlimit="10" stroke-opacity="0.25" fill="none" fill-rule="nonzero" transform="matrix(1.00738 0 0 1 744.068 455.942)"/><path d="M67.0419 127.628 97.9552 111.695" stroke="#309BC9" stroke-width="1.47734" stroke-linecap="butt" stroke-linejoin="miter" stroke-miterlimit="10" stroke-opacity="1" fill="none" fill-rule="nonzero" transform="matrix(1.00738 0 0 1 744.068 455.942)"/><path d="M67.0419 127.628 97.9552 77.5533" stroke="#309BC9" stroke-width="1.47734" stroke-linecap="butt" stroke-linejoin="miter" stroke-miterlimit="10" stroke-opacity="0.25" fill="none" fill-rule="nonzero" transform="matrix(1.00738 0 0 1 744.068 455.942)"/><path d="M67.197 127.148 97.9552 43.4045" stroke="#309BC9" stroke-width="1.47734" stroke-linecap="butt" stroke-linejoin="miter" stroke-miterlimit="10" stroke-opacity="0.25" fill="none" fill-rule="nonzero" transform="matrix(1.00738 0 0 1 744.068 455.942)"/><path d="M66.8499 58.8648 97.9552 43.4045" stroke="#309BC9" stroke-width="1.47734" stroke-linecap="butt" stroke-linejoin="miter" stroke-miterlimit="10" stroke-opacity="0.25" fill="none" fill-rule="nonzero" transform="matrix(1.00738 0 0 1 744.068 455.942)"/><path d="M67.0419 59.3375 97.9552 77.5533" stroke="#309BC9" stroke-width="1.47734" stroke-linecap="butt" stroke-linejoin="miter" stroke-miterlimit="10" stroke-opacity="0.25" fill="none" fill-rule="nonzero" transform="matrix(1.00738 0 0 1 744.068 455.942)"/><path d="M67.0419 59.3375 97.9552 111.695" stroke="#309BC9" stroke-width="1.47734" stroke-linecap="butt" stroke-linejoin="miter" stroke-miterlimit="10" stroke-opacity="0.25" fill="none" fill-rule="nonzero" transform="matrix(1.00738 0 0 1 744.068 455.942)"/><path d="M67.0419 93.4863 97.9552 43.4045" stroke="#309BC9" stroke-width="1.47734" stroke-linecap="butt" stroke-linejoin="miter" stroke-miterlimit="10" stroke-opacity="1" fill="none" fill-rule="nonzero" transform="matrix(1.00738 0 0 1 744.068 455.942)"/><path d="M67.0419 93.4863 97.9552 77.5533" stroke="#309BC9" stroke-width="1.47734" stroke-linecap="butt" stroke-linejoin="miter" stroke-miterlimit="10" stroke-opacity="0.25" fill="none" fill-rule="nonzero" transform="matrix(1.00738 0 0 1 744.068 455.942)"/><path d="M67.0419 93.4863 97.9183 111.281" stroke="#309BC9" stroke-width="1.47734" stroke-linecap="butt" stroke-linejoin="miter" stroke-miterlimit="10" stroke-opacity="0.25" fill="none" fill-rule="nonzero" transform="matrix(1.00738 0 0 1 744.068 455.942)"/><path d="M111.244 111.695 142.165 93.4863" stroke="#309BC9" stroke-width="1.47734" stroke-linecap="butt" stroke-linejoin="miter" stroke-miterlimit="10" stroke-opacity="0.25" fill="none" fill-rule="nonzero" transform="matrix(1.00738 0 0 1 744.068 455.942)"/><path d="M111.244 111.695 142.165 59.3375" stroke="#309BC9" stroke-width="1.47734" stroke-linecap="butt" stroke-linejoin="miter" stroke-miterlimit="10" stroke-opacity="0.25" fill="none" fill-rule="nonzero" transform="matrix(1.00738 0 0 1 744.068 455.942)"/><path d="M111.244 77.5533 142.165 93.4863" stroke="#309BC9" stroke-width="1.47734" stroke-linecap="butt" stroke-linejoin="miter" stroke-miterlimit="10" stroke-opacity="0.25" fill="none" fill-rule="nonzero" transform="matrix(1.00738 0 0 1 744.068 455.942)"/><path d="M111.244 77.5533 142.165 59.3375" stroke="#309BC9" stroke-width="1.47734" stroke-linecap="butt" stroke-linejoin="miter" stroke-miterlimit="10" stroke-opacity="0.25" fill="none" fill-rule="nonzero" transform="matrix(1.00738 0 0 1 744.068 455.942)"/><path d="M111.244 43.4045 142.165 59.3375" stroke="#309BC9" stroke-width="1.47734" stroke-linecap="butt" stroke-linejoin="miter" stroke-miterlimit="10" stroke-opacity="0.25" fill="none" fill-rule="nonzero" transform="matrix(1.00738 0 0 1 744.068 455.942)"/><path d="M111.244 43.4045 142.165 93.4863" stroke="#309BC9" stroke-width="1.47734" stroke-linecap="butt" stroke-linejoin="miter" stroke-miterlimit="10" stroke-opacity="1" fill="none" fill-rule="nonzero" transform="matrix(1.00738 0 0 1 744.068 455.942)"/><path d="M367.624 6.98784C367.624 10.6562 364.649 13.63 360.981 13.63 357.313 13.63 354.339 10.6562 354.339 6.98784 354.339 3.31949 357.313 0.345694 360.981 0.345694 364.649 0.345694 367.624 3.31949 367.624 6.98784Z" stroke="#309BC9" stroke-width="1.47734" stroke-linecap="butt" stroke-linejoin="miter" stroke-miterlimit="4" stroke-opacity="1" fill="#D9ECF3" fill-rule="nonzero" fill-opacity="1" transform="matrix(1.00738 0 0 1 744.068 455.942)"/><path d="M367.624 75.278C367.624 78.9464 364.649 81.9203 360.981 81.9203 357.313 81.9203 354.339 78.9464 354.339 75.278 354.339 71.6098 357.313 68.6359 360.981 68.6359 364.649 68.6359 367.624 71.6098 367.624 75.278Z" stroke="#309BC9" stroke-width="1.47734" stroke-linecap="butt" stroke-linejoin="miter" stroke-miterlimit="4" stroke-opacity="1" fill="#D9ECF3" fill-rule="nonzero" fill-opacity="1" transform="matrix(1.00738 0 0 1 744.068 455.942)"/><path d="M367.624 109.419C367.624 113.088 364.649 116.062 360.981 116.062 357.313 116.062 354.339 113.088 354.339 109.419 354.339 105.751 357.313 102.777 360.981 102.777 364.649 102.777 367.624 105.751 367.624 109.419Z" stroke="#309BC9" stroke-width="1.47734" stroke-linecap="butt" stroke-linejoin="miter" stroke-miterlimit="4" stroke-opacity="1" fill="#D9ECF3" fill-rule="nonzero" fill-opacity="1" transform="matrix(1.00738 0 0 1 744.068 455.942)"/><path d="M367.624 41.1292C367.624 44.7976 364.649 47.7715 360.981 47.7715 357.313 47.7715 354.339 44.7976 354.339 41.1292 354.339 37.461 357.313 34.4871 360.981 34.4871 364.649 34.4871 367.624 37.461 367.624 41.1292Z" stroke="#309BC9" stroke-width="1.47734" stroke-linecap="butt" stroke-linejoin="miter" stroke-miterlimit="4" stroke-opacity="1" fill="#D9ECF3" fill-rule="nonzero" fill-opacity="1" transform="matrix(1.00738 0 0 1 744.068 455.942)"/><path d="M367.624 143.561C367.624 147.229 364.649 150.203 360.981 150.203 357.313 150.203 354.339 147.229 354.339 143.561 354.339 139.893 357.313 136.919 360.981 136.919 364.649 136.919 367.624 139.893 367.624 143.561Z" stroke="#309BC9" stroke-width="1.47734" stroke-linecap="butt" stroke-linejoin="miter" stroke-miterlimit="4" stroke-opacity="1" fill="#D9ECF3" fill-rule="nonzero" fill-opacity="1" transform="matrix(1.00738 0 0 1 744.068 455.942)"/><path d="M420.667 27.4713C420.667 31.1395 417.695 34.1134 414.027 34.1134 410.356 34.1134 407.384 31.1395 407.384 27.4713 407.384 23.8029 410.356 20.8291 414.027 20.8291 417.695 20.8291 420.667 23.8029 420.667 27.4713Z" stroke="#309BC9" stroke-width="1.47734" stroke-linecap="butt" stroke-linejoin="miter" stroke-miterlimit="4" stroke-opacity="1" fill="#D9ECF3" fill-rule="nonzero" fill-opacity="1" transform="matrix(1.00738 0 0 1 744.068 455.942)"/><path d="M367.622 75.278 407.386 27.4713" stroke="#2CA02C" stroke-width="1.47734" stroke-linecap="butt" stroke-linejoin="miter" stroke-miterlimit="10" stroke-opacity="0.5" fill="none" fill-rule="nonzero" transform="matrix(1.00738 0 0 1 744.068 455.942)"/><path d="M367.622 109.419 407.386 27.4713" stroke="#2CA02C" stroke-width="1.47734" stroke-linecap="butt" stroke-linejoin="miter" stroke-miterlimit="10" stroke-opacity="0.5" fill="none" fill-rule="nonzero" transform="matrix(1.00738 0 0 1 744.068 455.942)"/><path d="M367.283 140.902 407.386 27.4713" stroke="#2CA02C" stroke-width="1.47734" stroke-linecap="butt" stroke-linejoin="miter" stroke-miterlimit="10" stroke-opacity="0.5" fill="none" fill-rule="nonzero" transform="matrix(1.00738 0 0 1 744.068 455.942)"/><path d="M420.667 93.4863C420.667 97.1547 417.695 100.129 414.027 100.129 410.356 100.129 407.384 97.1547 407.384 93.4863 407.384 89.8181 410.356 86.8442 414.027 86.8442 417.695 86.8442 420.667 89.8181 420.667 93.4863Z" stroke="#309BC9" stroke-width="1.47734" stroke-linecap="butt" stroke-linejoin="miter" stroke-miterlimit="4" stroke-opacity="1" fill="#D9ECF3" fill-rule="nonzero" fill-opacity="1" transform="matrix(1.00738 0 0 1 744.068 455.942)"/><path d="M367.622 6.98784 407.386 93.4863" stroke="#2CA02C" stroke-width="1.47734" stroke-linecap="butt" stroke-linejoin="miter" stroke-miterlimit="10" stroke-opacity="0.5" fill="none" fill-rule="nonzero" transform="matrix(1.00738 0 0 1 744.068 455.942)"/><path d="M367.622 75.278 407.386 93.4863" stroke="#2CA02C" stroke-width="1.47734" stroke-linecap="butt" stroke-linejoin="miter" stroke-miterlimit="10" stroke-opacity="0.5" fill="none" fill-rule="nonzero" transform="matrix(1.00738 0 0 1 744.068 455.942)"/><path d="M367.622 41.1292 407.386 93.4863" stroke="#2CA02C" stroke-width="1.47734" stroke-linecap="butt" stroke-linejoin="miter" stroke-miterlimit="10" stroke-opacity="0.5" fill="none" fill-rule="nonzero" transform="matrix(1.00738 0 0 1 744.068 455.942)"/><path d="M367.371 140.747 407.386 95.0228" stroke="#2CA02C" stroke-width="1.47734" stroke-linecap="butt" stroke-linejoin="miter" stroke-miterlimit="10" stroke-opacity="0.5" fill="none" fill-rule="nonzero" transform="matrix(1.00738 0 0 1 744.068 455.942)"/><path d="M420.667 59.3375C420.667 63.0059 417.695 65.9798 414.027 65.9798 410.356 65.9798 407.384 63.0059 407.384 59.3375 407.384 55.6693 410.356 52.6954 414.027 52.6954 417.695 52.6954 420.667 55.6693 420.667 59.3375Z" stroke="#309BC9" stroke-width="1.47734" stroke-linecap="butt" stroke-linejoin="miter" stroke-miterlimit="4" stroke-opacity="1" fill="#D9ECF3" fill-rule="nonzero" fill-opacity="1" transform="matrix(1.00738 0 0 1 744.068 455.942)"/><path d="M367.622 75.278 407.149 60.1132" stroke="#2CA02C" stroke-width="1.47734" stroke-linecap="butt" stroke-linejoin="miter" stroke-miterlimit="10" stroke-opacity="0.5" fill="none" fill-rule="nonzero" transform="matrix(1.00738 0 0 1 744.068 455.942)"/><path d="M367.622 109.419 407.386 59.3375" stroke="#2CA02C" stroke-width="1.47734" stroke-linecap="butt" stroke-linejoin="miter" stroke-miterlimit="10" stroke-opacity="0.5" fill="none" fill-rule="nonzero" transform="matrix(1.00738 0 0 1 744.068 455.942)"/><path d="M367.622 41.1292 407.386 59.3375" stroke="#2CA02C" stroke-width="1.47734" stroke-linecap="butt" stroke-linejoin="miter" stroke-miterlimit="10" stroke-opacity="0.5" fill="none" fill-rule="nonzero" transform="matrix(1.00738 0 0 1 744.068 455.942)"/><path d="M367.216 140.651 407.231 60.8444" stroke="#2CA02C" stroke-width="1.47734" stroke-linecap="butt" stroke-linejoin="miter" stroke-miterlimit="10" stroke-opacity="0.5" fill="none" fill-rule="nonzero" transform="matrix(1.00738 0 0 1 744.068 455.942)"/><path d="M420.667 127.628C420.667 131.296 417.695 134.27 414.027 134.27 410.356 134.27 407.384 131.296 407.384 127.628 407.384 123.959 410.356 120.986 414.027 120.986 417.695 120.986 420.667 123.959 420.667 127.628Z" stroke="#309BC9" stroke-width="1.47734" stroke-linecap="butt" stroke-linejoin="miter" stroke-miterlimit="4" stroke-opacity="1" fill="#D9ECF3" fill-rule="nonzero" fill-opacity="1" transform="matrix(1.00738 0 0 1 744.068 455.942)"/><path d="M367.622 6.98784 407.386 127.628" stroke="#2CA02C" stroke-width="1.47734" stroke-linecap="butt" stroke-linejoin="miter" stroke-miterlimit="10" stroke-opacity="0.5" fill="none" fill-rule="nonzero" transform="matrix(1.00738 0 0 1 744.068 455.942)"/><path d="M367.622 109.419 407.386 127.628" stroke="#2CA02C" stroke-width="1.47734" stroke-linecap="butt" stroke-linejoin="miter" stroke-miterlimit="10" stroke-opacity="0.5" fill="none" fill-rule="nonzero" transform="matrix(1.00738 0 0 1 744.068 455.942)"/><path d="M367.622 41.1292 407.362 126.86" stroke="#2CA02C" stroke-width="1.47734" stroke-linecap="butt" stroke-linejoin="miter" stroke-miterlimit="10" stroke-opacity="0.5" fill="none" fill-rule="nonzero" transform="matrix(1.00738 0 0 1 744.068 455.942)"/><path d="M367.216 141.315 407.386 127.628" stroke="#2CA02C" stroke-width="1.47734" stroke-linecap="butt" stroke-linejoin="miter" stroke-miterlimit="10" stroke-opacity="0.5" fill="none" fill-rule="nonzero" transform="matrix(1.00738 0 0 1 744.068 455.942)"/><path d="M464.877 43.4045C464.877 47.0727 461.905 50.0466 458.234 50.0466 454.566 50.0466 451.594 47.0727 451.594 43.4045 451.594 39.7361 454.566 36.7622 458.234 36.7622 461.905 36.7622 464.877 39.7361 464.877 43.4045Z" stroke="#309BC9" stroke-width="1.47734" stroke-linecap="butt" stroke-linejoin="miter" stroke-miterlimit="4" stroke-opacity="1" fill="#D9ECF3" fill-rule="nonzero" fill-opacity="1" transform="matrix(1.00738 0 0 1 744.068 455.942)"/><path d="M420.673 27.4713 451.588 43.4045" stroke="#2CA02C" stroke-width="1.47734" stroke-linecap="butt" stroke-linejoin="miter" stroke-miterlimit="10" stroke-opacity="0.5" fill="none" fill-rule="nonzero" transform="matrix(1.00738 0 0 1 744.068 455.942)"/><path d="M464.877 77.5533C464.877 81.2215 461.905 84.1954 458.234 84.1954 454.566 84.1954 451.594 81.2215 451.594 77.5533 451.594 73.8849 454.566 70.911 458.234 70.911 461.905 70.911 464.877 73.8849 464.877 77.5533Z" stroke="#309BC9" stroke-width="1.47734" stroke-linecap="butt" stroke-linejoin="miter" stroke-miterlimit="4" stroke-opacity="1" fill="#D9ECF3" fill-rule="nonzero" fill-opacity="1" transform="matrix(1.00738 0 0 1 744.068 455.942)"/><path d="M420.481 58.8648 451.588 43.4045" stroke="#2CA02C" stroke-width="1.47734" stroke-linecap="butt" stroke-linejoin="miter" stroke-miterlimit="10" stroke-opacity="0.5" fill="none" fill-rule="nonzero" transform="matrix(1.00738 0 0 1 744.068 455.942)"/><path d="M420.829 127.148 451.588 43.4045" stroke="#2CA02C" stroke-width="1.47734" stroke-linecap="butt" stroke-linejoin="miter" stroke-miterlimit="10" stroke-opacity="0.5" fill="none" fill-rule="nonzero" transform="matrix(1.00738 0 0 1 744.068 455.942)"/><path d="M464.877 111.695C464.877 115.363 461.905 118.337 458.234 118.337 454.566 118.337 451.594 115.363 451.594 111.695 451.594 108.026 454.566 105.052 458.234 105.052 461.905 105.052 464.877 108.026 464.877 111.695Z" stroke="#309BC9" stroke-width="1.47734" stroke-linecap="butt" stroke-linejoin="miter" stroke-miterlimit="4" stroke-opacity="1" fill="#D9ECF3" fill-rule="nonzero" fill-opacity="1" transform="matrix(1.00738 0 0 1 744.068 455.942)"/><path d="M420.673 93.4863 451.588 77.5533" stroke="#2CA02C" stroke-width="1.47734" stroke-linecap="butt" stroke-linejoin="miter" stroke-miterlimit="10" stroke-opacity="0.5" fill="none" fill-rule="nonzero" transform="matrix(1.00738 0 0 1 744.068 455.942)"/><path d="M420.673 127.628 451.588 77.5533" stroke="#2CA02C" stroke-width="1.47734" stroke-linecap="butt" stroke-linejoin="miter" stroke-miterlimit="10" stroke-opacity="0.5" fill="none" fill-rule="nonzero" transform="matrix(1.00738 0 0 1 744.068 455.942)"/><path d="M509.08 93.4863C509.08 97.1547 506.106 100.129 502.438 100.129 498.77 100.129 495.795 97.1547 495.795 93.4863 495.795 89.8181 498.77 86.8442 502.438 86.8442 506.106 86.8442 509.08 89.8181 509.08 93.4863Z" stroke="#309BC9" stroke-width="1.47734" stroke-linecap="butt" stroke-linejoin="miter" stroke-miterlimit="4" stroke-opacity="1" fill="#D9ECF3" fill-rule="nonzero" fill-opacity="1" transform="matrix(1.00738 0 0 1 744.068 455.942)"/><path d="M367.652 109.072 407.231 94.6165" stroke="#309BC9" stroke-width="1.47734" stroke-linecap="butt" stroke-linejoin="miter" stroke-miterlimit="10" stroke-opacity="1" fill="none" fill-rule="nonzero" transform="matrix(1.00738 0 0 1 744.068 455.942)"/><path d="M420.911 28.0694 451.588 111.695" stroke="#2CA02C" stroke-width="1.47734" stroke-linecap="butt" stroke-linejoin="miter" stroke-miterlimit="10" stroke-opacity="0.5" fill="none" fill-rule="nonzero" transform="matrix(1.00738 0 0 1 744.068 455.942)"/><path d="M367.622 75.278 407.451 126.948" stroke="#309BC9" stroke-width="1.47734" stroke-linecap="butt" stroke-linejoin="miter" stroke-miterlimit="10" stroke-opacity="1" fill="none" fill-rule="nonzero" transform="matrix(1.00738 0 0 1 744.068 455.942)"/><path d="M367.622 41.1292 407.386 27.4713" stroke="#309BC9" stroke-width="1.47734" stroke-linecap="butt" stroke-linejoin="miter" stroke-miterlimit="10" stroke-opacity="1" fill="none" fill-rule="nonzero" transform="matrix(1.00738 0 0 1 744.068 455.942)"/><path d="M464.877 77.5533 495.798 93.4863" stroke="#2CA02C" stroke-width="1.47734" stroke-linecap="butt" stroke-linejoin="miter" stroke-miterlimit="10" stroke-opacity="0.5" fill="none" fill-rule="nonzero" transform="matrix(1.00738 0 0 1 744.068 455.942)"/><path d="M366.972 7.1208 407.386 59.3375" stroke="#309BC9" stroke-width="1.47734" stroke-linecap="butt" stroke-linejoin="miter" stroke-miterlimit="10" stroke-opacity="1" fill="none" fill-rule="nonzero" transform="matrix(1.00738 0 0 1 744.068 455.942)"/><path d="M464.877 111.695 495.798 93.4863" stroke="#2CA02C" stroke-width="1.47734" stroke-linecap="butt" stroke-linejoin="miter" stroke-miterlimit="10" stroke-opacity="0.5" fill="none" fill-rule="nonzero" transform="matrix(1.00738 0 0 1 744.068 455.942)"/><path d="M420.673 59.3375 451.588 77.5533" stroke="#2CA02C" stroke-width="1.47734" stroke-linecap="butt" stroke-linejoin="miter" stroke-miterlimit="10" stroke-opacity="0.5" fill="none" fill-rule="nonzero" transform="matrix(1.00738 0 0 1 744.068 455.942)"/><path d="M367.622 6.98784 407.386 27.4713" stroke="#309BC9" stroke-width="1.47734" stroke-linecap="butt" stroke-linejoin="miter" stroke-miterlimit="10" stroke-opacity="1" fill="none" fill-rule="nonzero" transform="matrix(1.00738 0 0 1 744.068 455.942)"/><path d="M420.673 27.4713 451.588 77.5533" stroke="#309BC9" stroke-width="1.47734" stroke-linecap="butt" stroke-linejoin="miter" stroke-miterlimit="10" stroke-opacity="1" fill="none" fill-rule="nonzero" transform="matrix(1.00738 0 0 1 744.068 455.942)"/><path d="M420.673 93.4863 451.551 111.281" stroke="#2CA02C" stroke-width="1.47734" stroke-linecap="butt" stroke-linejoin="miter" stroke-miterlimit="10" stroke-opacity="0.5" fill="none" fill-rule="nonzero" transform="matrix(1.00738 0 0 1 744.068 455.942)"/><path d="M420.673 127.628 451.588 111.695" stroke="#309BC9" stroke-width="1.47734" stroke-linecap="butt" stroke-linejoin="miter" stroke-miterlimit="10" stroke-opacity="1" fill="none" fill-rule="nonzero" transform="matrix(1.00738 0 0 1 744.068 455.942)"/><path d="M420.673 59.3375 451.588 111.695" stroke="#2CA02C" stroke-width="1.47734" stroke-linecap="butt" stroke-linejoin="miter" stroke-miterlimit="10" stroke-opacity="0.5" fill="none" fill-rule="nonzero" transform="matrix(1.00738 0 0 1 744.068 455.942)"/><path d="M420.673 93.4863 451.588 43.4045" stroke="#309BC9" stroke-width="1.47734" stroke-linecap="butt" stroke-linejoin="miter" stroke-miterlimit="10" stroke-opacity="1" fill="none" fill-rule="nonzero" transform="matrix(1.00738 0 0 1 744.068 455.942)"/><path d="M464.877 43.4045 495.798 93.4863" stroke="#309BC9" stroke-width="1.47734" stroke-linecap="butt" stroke-linejoin="miter" stroke-miterlimit="10" stroke-opacity="1" fill="none" fill-rule="nonzero" transform="matrix(1.00738 0 0 1 744.068 455.942)"/><path d="M509.08 59.3375C509.08 63.0059 506.106 65.9798 502.438 65.9798 498.77 65.9798 495.795 63.0059 495.795 59.3375 495.795 55.6693 498.77 52.6954 502.438 52.6954 506.106 52.6954 509.08 55.6693 509.08 59.3375Z" stroke="#309BC9" stroke-width="1.47734" stroke-linecap="butt" stroke-linejoin="miter" stroke-miterlimit="4" stroke-opacity="1" fill="#D9ECF3" fill-rule="nonzero" fill-opacity="1" transform="matrix(1.00738 0 0 1 744.068 455.942)"/><path d="M464.877 43.4045 495.798 59.3375" stroke="#2CA02C" stroke-width="1.47734" stroke-linecap="butt" stroke-linejoin="miter" stroke-miterlimit="10" stroke-opacity="0.5" fill="none" fill-rule="nonzero" transform="matrix(1.00738 0 0 1 744.068 455.942)"/><path d="M210.677 79.5329 284.174 79.5329" stroke="#53D5FD" stroke-width="13.2961" stroke-linecap="butt" stroke-linejoin="miter" stroke-miterlimit="10" stroke-opacity="1" fill="none" fill-rule="nonzero" transform="matrix(1.00738 0 0 1 744.068 455.942)"/><path d="M301.903 79.5329 284.174 88.3969 284.174 70.6688Z" stroke="#53D5FD" stroke-width="13.2961" stroke-linecap="butt" stroke-linejoin="miter" stroke-miterlimit="10" stroke-opacity="1" fill="#53D5FD" fill-rule="nonzero" fill-opacity="1" transform="matrix(1.00738 0 0 1 744.068 455.942)"/><path d="M13.9919 143.561C13.9919 147.229 11.0181 150.203 7.34978 150.203 3.68142 150.203 0.707643 147.229 0.707643 143.561 0.707643 139.893 3.68142 136.919 7.34978 136.919 11.0181 136.919 13.9919 139.893 13.9919 143.561Z" stroke="#309BC9" stroke-width="1.47734" stroke-linecap="butt" stroke-linejoin="miter" stroke-miterlimit="4" stroke-opacity="0.4" fill="#D9ECF3" fill-rule="nonzero" fill-opacity="0.4" transform="matrix(1.00738 0 0 1 744.068 455.942)"/><path d="M464.877 77.5533 495.798 59.3375" stroke="#2CA02C" stroke-width="1.47734" stroke-linecap="butt" stroke-linejoin="miter" stroke-miterlimit="10" stroke-opacity="0.5" fill="none" fill-rule="nonzero" transform="matrix(1.00738 0 0 1 744.068 455.942)"/><path d="M464.877 111.695 495.798 59.3375" stroke="#2CA02C" stroke-width="1.47734" stroke-linecap="butt" stroke-linejoin="miter" stroke-miterlimit="10" stroke-opacity="0.5" fill="none" fill-rule="nonzero" transform="matrix(1.00738 0 0 1 744.068 455.942)"/><text fill="#231F20" fill-opacity="1" font-family="Arial,Arial_MSFontService,sans-serif" font-style="normal" font-variant="normal" font-weight="400" font-stretch="normal" font-size="92" text-anchor="start" direction="ltr" writing-mode="lr-tb" unicode-bidi="normal" text-decoration="none" transform="matrix(0.216594 0 0 0.216017 744.356 428)">Sparse Pre</text><text fill="#231F20" fill-opacity="1" font-family="Arial,Arial_MSFontService,sans-serif" font-style="normal" font-variant="normal" font-weight="400" font-stretch="normal" font-size="92" text-anchor="start" direction="ltr" writing-mode="lr-tb" unicode-bidi="normal" text-decoration="none" transform="matrix(0.216594 0 0 0.216017 843.628 428)">-</text><text fill="#231F20" fill-opacity="1" font-family="Arial,Arial_MSFontService,sans-serif" font-style="normal" font-variant="normal" font-weight="400" font-stretch="normal" font-size="92" text-anchor="start" direction="ltr" writing-mode="lr-tb" unicode-bidi="normal" text-decoration="none" transform="matrix(0.216594 0 0 0.216017 850.206 428)">training</text><text fill="#231F20" fill-opacity="1" font-family="Arial,Arial_MSFontService,sans-serif" font-style="normal" font-variant="normal" font-weight="400" font-stretch="normal" font-size="92" text-anchor="start" direction="ltr" writing-mode="lr-tb" unicode-bidi="normal" text-decoration="none" transform="matrix(0.216594 0 0 0.216017 1100.7 428)">Dense Fine</text><text fill="#231F20" fill-opacity="1" font-family="Arial,Arial_MSFontService,sans-serif" font-style="normal" font-variant="normal" font-weight="400" font-stretch="normal" font-size="92" text-anchor="start" direction="ltr" writing-mode="lr-tb" unicode-bidi="normal" text-decoration="none" transform="matrix(0.216594 0 0 0.216017 1202.33 428)">-</text><text fill="#231F20" fill-opacity="1" font-family="Arial,Arial_MSFontService,sans-serif" font-style="normal" font-variant="normal" font-weight="400" font-stretch="normal" font-size="92" text-anchor="start" direction="ltr" writing-mode="lr-tb" unicode-bidi="normal" text-decoration="none" transform="matrix(0.216594 0 0 0.216017 1208.91 428)">tuning</text></g></g></g></g></g></svg>